<?xml version="1.0" encoding="utf-8"?>
<!-- Generator: Adobe Illustrator 27.2.0, SVG Export Plug-In . SVG Version: 6.00 Build 0)  -->
<svg version="1.1" id="Capa_1" xmlns="http://www.w3.org/2000/svg" xmlns:xlink="http://www.w3.org/1999/xlink" x="0px" y="0px"
	 viewBox="0 0 595.3 841.9" style="enable-background:new 0 0 595.3 841.9;" xml:space="preserve">
<style type="text/css">
	.st0{fill:#DF4C4C;}
</style>
<g>
	<g>
		<g>
			<g>
				<path class="st0" d="M296.6,426.7l1.7,1.5c-2.1,1.9-4.5,2.9-7.1,2.9c-2.8,0-5.1-1-7-2.9c-1.9-1.9-2.9-4.2-2.9-6.8
					c0-2.6,1-4.9,2.9-6.8c1.9-1.9,4.2-2.9,7-2.9c2.6,0,4.9,1,7.1,2.9l-1.7,1.5c-1.7-1.5-3.5-2.3-5.4-2.3c-2,0-3.8,0.7-5.2,2.2
					c-1.5,1.5-2.2,3.3-2.2,5.4c0,2.1,0.7,3.9,2.2,5.4c1.5,1.5,3.2,2.2,5.2,2.2C293,429,294.8,428.2,296.6,426.7z"/>
			</g>
		</g>
		<g>
			<path class="st0" d="M311.9,420.5c-0.6-0.6-1.2-1-1.9-1.3c0.2-0.1,0.3-0.3,0.5-0.4c0.7-0.7,1.1-1.6,1.1-2.7s-0.4-2-1.1-2.7
				c-0.7-0.7-1.6-1.1-2.7-1.1h-5.6v18.6h6c1.4-0.2,2.6-0.8,3.6-1.8c1.2-1.2,1.8-2.6,1.8-4.3C313.7,423.1,313.1,421.7,311.9,420.5z
				 M311.1,428.4c-1,1-2.2,1.5-3.5,1.5h-4.3v-8.9h0v-2.7h0v-4.9h4.5c0.8,0,1.4,0.3,2,0.8s0.8,1.2,0.8,2c0,0.8-0.3,1.4-0.8,2
				c-0.4,0.4-0.9,0.6-1.7,0.7h-1.7v1.1h1.3c1.4,0,2.6,0.5,3.5,1.5c1,1,1.5,2.2,1.5,3.6S312.1,427.4,311.1,428.4z"/>
		</g>
	</g>
</g>
</svg>
