<?xml version="1.0" encoding="utf-8"?>
<!-- Generator: Adobe Illustrator 27.2.0, SVG Export Plug-In . SVG Version: 6.00 Build 0)  -->
<svg version="1.1" id="Capa_1" xmlns="http://www.w3.org/2000/svg" xmlns:xlink="http://www.w3.org/1999/xlink" x="0px" y="0px"
	 viewBox="0 0 595.3 841.9" style="enable-background:new 0 0 595.3 841.9;" xml:space="preserve">
<style type="text/css">
	.st0{fill:#DB0D15;}
</style>
<g>
	<path class="st0" d="M283,353.4c0-0.1,0-0.1,0-0.2c0,0,0,0,0-0.1V353v-0.1v-0.1v-0.1v-0.1v-0.1v-0.1c0,0,0,0,0-0.1v-0.1
		c0,0,0,0,0-0.1V352c0,0,0,0,0-0.1v-0.1c0,0,0,0,0-0.1v-0.1c0,0,0,0,0-0.1v-0.1c0,0,0,0,0-0.1v-0.1c0,0,0,0,0-0.1V351c0,0,0,0,0-0.1
		v-0.1c0,0,0,0,0-0.1c0,0,0-0.1-0.1-0.1l0,0c0,0,0-0.1-0.1-0.1l0,0c0,0,0-0.1-0.1-0.1l0,0c0,0,0-0.1-0.1-0.1l0,0c0,0,0-0.1-0.1-0.1
		l0,0c0,0,0-0.1-0.1-0.1l0,0c0,0,0-0.1-0.1-0.1l0,0c0,0,0-0.1-0.1-0.1l0,0c0,0,0-0.1-0.1-0.1l0,0l-0.1-0.1l0,0l-0.1-0.1l0,0
		l-0.1-0.1l0,0l-0.1-0.1l0,0l-0.1-0.1l0,0l-0.1-0.1l0,0l-0.1-0.1l0,0l-0.1-0.1l0,0l-0.1-0.1l0,0l-0.1-0.1l0,0l-0.1-0.1l0,0l-0.1-0.1
		l0,0l-0.1-0.1l0,0l-0.1-0.1l0,0l-0.1-0.1l0,0c-0.7-0.4-1.4-0.7-2.2-0.9l0,0h-0.1c0,0,0,0-0.1,0h-0.1H278c0,0,0,0-0.1,0h-0.1l0,0
		h-0.1l0,0h-0.1l0,0h-0.1l0,0h-0.1l0,0c-1.4-0.1-3,0.1-4.5,0.7l0,0c-0.1,0-0.1,0-0.2,0.1l0,0c-0.1,0-0.1,0-0.2,0.1l0,0
		c-0.1,0-0.1,0-0.2,0.1l0,0c-0.1,0-0.1,0-0.2,0.1l0,0c0,0-0.1,0-0.1,0.1l0,0c0,0-0.1,0-0.1,0.1l0,0c0,0-0.1,0-0.1,0.1l0,0
		c0,0-0.1,0-0.1,0.1l0,0c0,0-0.1,0-0.1,0.1l0,0c0,0-0.1,0-0.1,0.1l0,0c0,0-0.1,0-0.1,0.1l0,0c0,0-0.1,0-0.1,0.1l0,0l-0.1,0.1l0,0
		l-0.1,0.1l0,0l-0.1,0.1l0,0l-0.1,0.1l0,0l-0.1,0.1c0,0,0,0-0.1,0l-0.1,0.1c0,0,0,0-0.1,0l-0.1,0.1c0,0,0,0-0.1,0l-0.1,0.1
		c0,0,0,0-0.1,0l-0.1,0.1c0,0,0,0-0.1,0l-0.1,0.1c0,0,0,0-0.1,0l-0.1,0.1c0,0,0,0-0.1,0l-0.1,0.1c0,0,0,0-0.1,0l-0.1,0.1
		c0,0,0,0-0.1,0.1l-0.1,0.1c0,0,0,0-0.1,0.1l-0.1,0.1c0,0,0,0-0.1,0.1l-0.1,0.1c0,0,0,0-0.1,0.1l-0.1,0.1c0,0,0,0-0.1,0.1l-0.1,0.1
		c0,0,0,0-0.1,0.1l-0.1,0.1c0,0,0,0-0.1,0.1l-0.1,0.1c0,0,0,0-0.1,0.1l-0.1,0.1c0,0,0,0-0.1,0.1l-0.1,0.1c0,0,0,0-0.1,0.1l-0.1,0.1
		c0,0,0,0-0.1,0.1l-0.1,0.1c0,0,0,0-0.1,0.1l-0.1,0.1c0,0,0,0-0.1,0.1l-0.1,0.1c0,0,0,0-0.1,0.1c0,0.1-0.1,0.1-0.1,0.2
		c-0.1,0-0.2-0.1-0.3-0.1H266c-0.1,0-0.1-0.1-0.2-0.1h-0.1c-0.1,0-0.1-0.1-0.2-0.1l0,0c-0.1,0-0.2-0.1-0.2-0.1h-0.1
		c-0.1,0-0.1,0-0.2-0.1h-0.1c-0.1,0-0.1,0-0.2-0.1c0,0,0,0-0.1,0s-0.2-0.1-0.2-0.1h-0.1c-0.1,0-0.1,0-0.2-0.1H264
		c-0.1,0-0.1,0-0.2,0h-0.1c-0.1,0-0.2,0-0.2-0.1h-0.1h-0.1h-0.1h-0.1H263c-0.1,0-0.1,0-0.2-0.1h-0.1h-0.1h-0.1h-0.1h-0.1h-0.1
		c-0.1,0-0.2,0-0.2,0h-0.1h-0.1h-0.1h-0.1c0,0,0,0-0.1,0s-0.2,0-0.3,0c0,0,0,0-0.1,0H261h-0.1c-0.1,0-0.1,0-0.2,0c0,0,0,0-0.1,0
		s-0.2,0-0.3,0l0,0c-0.1,0-0.1,0-0.2,0c0,0,0,0-0.1,0h-0.1l0,0l0,0c-0.2,0-0.4,0-0.6,0l0,0c-0.1,0-0.1,0-0.2,0c0,0,0,0-0.1,0
		s-0.1,0-0.2,0c0,0,0,0-0.1,0s-0.1,0-0.2,0l0,0c-0.2,0-0.4,0-0.5,0c0,0,0,0-0.1,0h-0.1c0,0,0,0-0.1,0h-0.1c0,0,0,0-0.1,0h-0.1l0,0
		c-0.1,0-0.2,0-0.3,0.1l0,0H257c0,0,0,0-0.1,0h-0.1c0,0,0,0-0.1,0h-0.1c0,0,0,0-0.1,0c-0.2,0-0.3,0.1-0.4,0.1c0,0,0,0-0.1,0h-0.1
		c0,0,0,0-0.1,0h-0.1c0,0,0,0-0.1,0h-0.1c0,0,0,0-0.1,0s-0.2,0.1-0.3,0.1l0,0H255c0,0,0,0-0.1,0h-0.1h-0.1h-0.1h-0.1h-0.1h-0.1
		c-0.1,0-0.1,0.1-0.2,0.1H254c0,0-0.1,0-0.1,0.1c0,0,0,0-0.1,0l0,0c-0.8,0.5-1.5,1.1-2.1,1.8l0,0c0,0,0,0.1-0.1,0.1l0,0
		c0,0,0,0.1-0.1,0.1l0,0c0,0,0,0.1-0.1,0.1l0,0c0,0,0,0.1-0.1,0.1l0,0c0,0,0,0.1-0.1,0.1l0,0c-0.1,0.2-0.2,0.4-0.3,0.6l0,0v0.1l0,0
		v0.1l0,0v0.1l0,0v0.1l0,0v0.1l0,0v0.1c0,0,0,0,0,0.1v0.1l0,0v0.1l0,0v0.1l0,0c0,0.1,0,0.2-0.1,0.2l0,0v0.1c0,0,0,0,0,0.1v0.1
		c0,0,0,0,0,0.1v0.1c0,0,0,0,0,0.1v0.1c0,0,0,0,0,0.1v0.1v0.1v0.1v0.1v0.1v0.1v0.1v0.1v0.1v0.1c0,0,0,0,0,0.1v0.1v0.1v0.1
		c0,0,0,0,0,0.1v0.1v0.1v0.1v0.1v0.1v0.1v0.1v0.1v0.1v0.1v0.1v0.1v0.1v0.1v0.1c0,0,0,0,0,0.1v0.1c0,0,0,0,0,0.1s0,0.1,0,0.2
		s0,0.1,0,0.2c0,0,0,0,0,0.1v0.1c0,0,0,0,0,0.1v0.1c0,0,0,0,0,0.1v0.1c0,0,0,0,0,0.1v0.1c0,0,0,0,0,0.1v0.1c0,0,0,0,0,0.1v0.1
		c0,0,0,0,0,0.1v0.1l0,0v0.1l0,0v0.1l0,0c0,0,0,0.1,0.1,0.1l0,0c0,0,0,0.1,0.1,0.1l0,0c0,0,0,0.1,0.1,0.1l0,0c0,0,0,0.1,0.1,0.1l0,0
		c0,0,0,0.1,0.1,0.1l0,0c0,0,0,0.1,0.1,0.1l0,0c0,0,0,0.1,0.1,0.1l0,0l0.1,0.1l0,0l0.1,0.1l0,0l0.1,0.1l0,0l0.1,0.1l0,0l0.1,0.1l0,0
		l0.1,0.1l0,0l0.1,0.1l0,0l0.1,0.1l0,0l0.1,0.1l0,0l0.1,0.1l0,0l0.1,0.1l0,0l0.1,0.1l0,0l0.1,0.1l0,0l0.1,0.1l0,0l0.1,0.1l0,0
		c1.6,1.4,3.6,2.4,6,3.3c0.1,0,0.2,0.1,0.3,0.1c0.2,0.1,0.4,0.1,0.6,0.2c0.1,0,0.2,0.1,0.3,0.1c0.4,0.1,0.8,0.3,1.1,0.4
		c2.9,1,6,1.9,9,3.4C275.3,365.4,284.7,361.5,283,353.4z"/>
	<path class="st0" d="M293,350c-0.1-0.5-0.2-1-0.4-1.5c-0.1-0.5-0.3-1-0.5-1.5c-0.4-1-0.8-2-1.3-3s-1.1-1.9-1.8-2.8
		c-0.7-0.9-1.4-1.8-2.2-2.6c-0.8-0.8-1.7-1.6-2.7-2.4c-1-0.7-2-1.4-3.1-2s-2.2-1.1-3.4-1.5c-1.2-0.4-2.4-0.8-3.7-1
		c-1.3-0.2-2.5-0.4-3.8-0.5c-0.2,0-0.3,0-0.5,0s-0.3,0-0.5,0h-0.2c0,0,0,0-0.1,0h-0.1h-0.1c-0.2,0-0.3,0-0.5,0h-0.2h-0.1h-0.1h-0.1
		c-0.2,0-0.3,0-0.5,0c-0.3,0-0.6,0-0.9,0.1c-1.2,0.1-2.5,0.2-3.8,0.5c-1.3,0.2-2.5,0.5-3.8,0.9s-2.5,0.9-3.7,1.4
		c-1.2,0.6-2.4,1.2-3.5,2c-0.6,0.4-1.1,0.8-1.7,1.2c-0.5,0.4-1.1,0.9-1.6,1.3c-1,0.9-2,1.9-2.9,3c-0.4,0.5-0.9,1.1-1.3,1.6
		c-0.4,0.6-0.8,1.1-1.1,1.7c-0.7,1.2-1.4,2.4-1.9,3.6c-0.6,1.2-1,2.5-1.4,3.8s-0.7,2.5-0.9,3.8c-0.5,2.6-0.7,5.1-0.6,7.6
		c0.1,2.5,0.4,5,0.9,7.3c0.1,0.6,0.3,1.2,0.4,1.7c0,0.1,0.1,0.3,0.1,0.4s0.1,0.3,0.1,0.4s0.1,0.3,0.1,0.4v0.1v0.1v0.1
		c0,0.1,0,0.2,0.1,0.2c0,0.1,0.1,0.3,0.1,0.4l0.1,0.2l0,0c0,0.1,0,0.1,0,0.1v0.1c0,0.1,0.1,0.3,0.1,0.4s0.1,0.3,0.1,0.4
		c0.2,0.6,0.4,1.1,0.6,1.7c0.2,0.6,0.5,1.1,0.7,1.6c0.3,0.5,0.5,1.1,0.8,1.6s0.6,1,0.9,1.5c0.3,0.5,0.6,1,0.9,1.5
		c0.6,0.9,1.3,1.8,2,2.7c0.7,0.9,1.4,1.7,2.1,2.4c0.7,0.8,1.4,1.5,2.1,2.1c0.7,0.7,1.4,1.3,2.2,1.9c1.4,1.2,2.8,2.2,4.2,3.1
		c1.4,0.9,2.7,1.6,3.9,2.3c1.2,0.7,2.4,1.2,3.4,1.7c1.1,0.5,2,0.9,2.9,1.2c0.8,0.3,1.6,0.6,2.2,0.8c0.6,0.2,1.1,0.4,1.5,0.5
		c0.1,0,0.2,0,0.2,0.1c0.1,0,0.1,0,0.2,0.1h0.1c0,0,0,0,0.1,0l0,0l0,0l0,0c0.4,0.1,0.8,0.2,1.2,0.2c5.2,0.8,10.1-2.9,10.8-8.1
		c0.8-5.2-2.9-10.1-8.1-10.8l0,0l0,0l0,0l0,0l0,0l0,0l0,0l0,0l0,0l0,0l0,0l0,0h-0.1c-0.2,0-0.4-0.1-0.8-0.1
		c-0.8-0.1-1.9-0.4-3.4-0.9c-0.7-0.2-1.6-0.5-2.4-0.8c-0.9-0.3-1.8-0.7-2.8-1.2s-2-1-3-1.6c-0.5-0.3-1-0.6-1.5-1s-1-0.7-1.5-1.1
		c-1.9-1.6-3.7-3.5-5.1-5.9c-0.2-0.3-0.3-0.6-0.5-0.9c0-0.1-0.1-0.2-0.1-0.2c0-0.1-0.1-0.2-0.1-0.2v-0.1c0,0,0-0.1,0,0l0,0l-0.1-0.2
		l-0.1-0.2l-0.1-0.1l-0.1-0.1l0,0l0,0v-0.1l0,0c-3.2-1.7-5.8-4.1-6.7-8.4c-0.7-3.4,0-6.6,2-9c1.4-1.7,3.4-2.8,5.8-3.4
		c0.4-0.7,0.9-1.3,1.5-1.9c0.3-0.3,0.6-0.6,0.9-0.9s0.6-0.6,0.9-0.8c0.6-0.5,1.3-1,2.1-1.5c0.7-0.5,1.5-0.9,2.3-1.2
		c0.8-0.4,1.7-0.7,2.5-0.9c0.9-0.3,1.8-0.5,2.7-0.7c0.2,0,0.5-0.1,0.7-0.1c0.1,0,0.2,0,0.3-0.1c0,0-0.1,0,0,0h0.1h0.1h0.2
		c0.1,0,0.2,0,0.3,0h0.1l0,0l0,0h0.2c0.1,0,0.2,0,0.3,0c0.1,0,0.2,0,0.3,0c0.9-0.1,1.7-0.1,2.6,0c1.7,0.1,3.4,0.5,4.9,1.1
		c0.8,0.3,1.5,0.7,2.2,1.1s1.4,0.9,2,1.4s1.2,1.1,1.8,1.7c0.6,0.6,1.1,1.2,1.5,1.9c0.5,0.7,0.9,1.3,1.2,2c0.2,0.4,0.3,0.7,0.5,1.1
		c0.1,0.4,0.3,0.7,0.4,1.1c0.5,1.4,0.8,2.9,0.9,4.4c0.1,1.4,0,2.8-0.2,4.1c0,0.1,0,0.2,0,0.2c0,0.1,0,0.2,0,0.2v0.1v0.1
		c0,0.1,0,0.2-0.1,0.2c-0.1,0.3-0.2,0.6-0.3,0.9c-0.2,0.6-0.4,1.2-0.6,1.8c-0.5,1.1-1,2.1-1.6,3c-0.3,0.5-0.6,0.9-0.9,1.3
		c-0.1,0.1-0.1,0.2-0.2,0.3l-0.1,0.1l-0.1,0.1c-0.1,0.1-0.1,0.2-0.2,0.3c-0.1,0.1-0.1,0.2-0.2,0.3c-0.1,0.1-0.1,0.2-0.2,0.3
		l-0.1,0.1c0,0,0,0-0.1,0.1c0,0,0,0-0.1,0.1c-0.1,0.2-0.3,0.3-0.4,0.5c-0.1,0.1-0.1,0.1-0.2,0.2s-0.1,0.1-0.2,0.2s-0.3,0.3-0.4,0.4
		c-0.5,0.5-1,0.9-1.3,1.2c-0.1,0.1-0.2,0.2-0.3,0.2c-0.1,0.1-0.2,0.1-0.2,0.2c-0.1,0.1-0.3,0.2-0.4,0.3c-0.2,0.2-0.3,0.2-0.3,0.2
		l0,0c-0.5,0.4-0.6,1.1-0.3,1.6c0.4,0.6,1.1,0.8,1.7,0.4c0,0,0.1-0.1,0.4-0.2c0.1-0.1,0.3-0.2,0.4-0.3c0.1-0.1,0.2-0.1,0.3-0.2
		c0.1-0.1,0.2-0.1,0.3-0.2c0.4-0.3,1-0.7,1.6-1.2c0.2-0.1,0.3-0.2,0.5-0.4c0.1-0.1,0.2-0.1,0.3-0.2c0.1-0.1,0.2-0.1,0.3-0.2
		c0.2-0.1,0.4-0.3,0.5-0.5c0,0,0,0,0.1-0.1c0,0,0,0,0.1-0.1l0.1-0.1c0.1-0.1,0.2-0.2,0.3-0.3c0.1-0.1,0.2-0.2,0.3-0.3
		c0.1-0.1,0.2-0.2,0.3-0.3l0.1-0.1l0.1-0.1c0.1-0.1,0.2-0.2,0.3-0.3c0.4-0.4,0.8-0.9,1.2-1.4c0.8-1,1.6-2.1,2.3-3.4
		c0.4-0.6,0.7-1.3,1-2.1c0.2-0.4,0.3-0.7,0.5-1.1c0-0.1,0.1-0.2,0.1-0.3c0,0,0-0.1,0.1-0.1v-0.1c0-0.1,0.1-0.2,0.1-0.3
		c0-0.1,0.1-0.2,0.1-0.3c0.5-1.6,0.8-3.4,0.9-5.2C293.6,354,293.5,352,293,350z"/>
</g>
</svg>
